PathFileType	4	(X/Y/Z)	 s05c0302.trc
DataRate	CameraRate	NumFrames	NumMarkers	Units	OrigDataRate	OrigDataStartFrame	OrigNumFrames
200	200	6	49	mm	200	1251	2000
Frame#	Time	racr			lacr			c7			jug			rlel			rdr			llel			ldr			s2			lic			ric			lasi			rasi			rpsi			lpsi			rgt			lgt			rth1			rth2			rth3			rth4			rlfc			rsh1			rsh2			rsh3			rsh4			rlmal			rmmal			rcal			rtoe			rmt5			lth1			lth2			lth4			lth3			llfc			lmfc			lsh1			lsh2			lsh3			lsh4			llmal			lmmal			lcal			ltoe			lmt5			SBIKE			LBIKE			RBIKE			
		X1	Y1	Z1	X2	Y2	Z2	X3	Y3	Z3	X4	Y4	Z4	X5	Y5	Z5	X6	Y6	Z6	X7	Y7	Z7	X8	Y8	Z8	X9	Y9	Z9	X10	Y10	Z10	X11	Y11	Z11	X12	Y12	Z12	X13	Y13	Z13	X14	Y14	Z14	X15	Y15	Z15	X16	Y16	Z16	X17	Y17	Z17	X18	Y18	Z18	X19	Y19	Z19	X20	Y20	Z20	X21	Y21	Z21	X22	Y22	Z22	X23	Y23	Z23	X24	Y24	Z24	X25	Y25	Z25	X26	Y26	Z26	X27	Y27	Z27	X28	Y28	Z28	X29	Y29	Z29	X30	Y30	Z30	X31	Y31	Z31	X32	Y32	Z32	X33	Y33	Z33	X34	Y34	Z34	X35	Y35	Z35	X36	Y36	Z36	X37	Y37	Z37	X38	Y38	Z38	X39	Y39	Z39	X40	Y40	Z40	X41	Y41	Z41	X42	Y42	Z42	X43	Y43	Z43	X44	Y44	Z44	X45	Y45	Z45	X46	Y46	Z46	X47	Y47	Z47	X48	Y48	Z48	X49	Y49	Z49	
1251	6.2550	774.019412	1242.734521	-149.781493	737.931018	1306.496335	-423.963788	748.633802	1351.254141	-281.152638	682.963881	1198.716491	-299.007416	601.847372	1097.716854	40.887407	705.425298	930.177710	-65.567243	547.165855	1106.818620	-551.301942	702.518678	925.775381	-459.781235	159.995403	1225.288066	-249.765136	296.850555	1252.938621	-394.719344	315.909660	1195.175991	-116.575379	333.741658	1185.129917	-371.137674	342.914205	1134.081664	-157.210026	204.370460	1257.601576	-198.487574	203.457964	1278.138865	-283.592838	227.553061	1069.046716	-111.948145	233.730531	1158.037412	-438.013466	258.387225	961.401519	-94.667623	291.362851	878.400102	-92.930679	278.033461	791.370856	-100.321519	327.430665	882.707502	-100.718249	312.557398	647.979458	-125.528422	250.854685	559.630254	-94.405816	244.694461	471.643669	-105.289642	199.197238	399.120722	-108.080865	274.207400	465.062240	-130.144972	163.203051	269.309348	-115.511487	183.032833	292.600442	-194.285157	90.683512	256.408459	-161.655535	368.600164	148.934898	-147.404823	262.793154	158.769541	-86.204430	340.965237	1062.464929	-463.072184	422.065199	1035.902597	-459.245517	441.472482	1061.180775	-436.912603	482.498552	968.300027	-464.813251	573.011217	853.963671	-437.223766	556.980236	836.624457	-327.137829	469.044408	796.910219	-459.845049	407.012906	736.496191	-448.994161	321.055165	713.998352	-448.792365	424.066911	709.479024	-427.481632	220.193827	647.136397	-442.621020	255.207247	643.011363	-368.649939	154.655244	677.597239	-404.136661	259.120971	402.718473	-382.303145	195.813019	485.423718	-454.441139	-164.233136	903.750281	-265.328100	-43.482197	85.251540	-474.700288	-51.724247	80.115831	-77.223328	
1252	6.2600	773.607770	1242.537410	-152.213173	736.573789	1305.645538	-428.141850	747.966826	1350.485268	-283.887631	681.384838	1198.057846	-301.212461	603.279182	1098.200924	41.033459	705.390362	929.774384	-65.371582	544.909887	1105.096645	-552.205111	702.463371	926.291730	-459.554963	159.974458	1225.508892	-245.733378	294.577263	1255.026968	-392.164392	318.261240	1193.868232	-115.097145	332.506740	1187.189986	-370.010490	344.384148	1132.922560	-157.002159	205.223432	1257.240426	-194.689391	202.176724	1278.407873	-279.504272	228.937806	1068.591557	-110.633857	232.680253	1160.323949	-435.692933	256.802426	961.578619	-92.922629	288.340585	877.964865	-90.502325	273.494755	791.217328	-97.755359	324.449699	881.811512	-98.019502	305.895111	646.786295	-123.412053	244.418263	558.941268	-92.318337	237.552735	471.048431	-103.313850	191.696098	398.677245	-106.246224	267.177951	464.155305	-128.046521	155.772332	268.550100	-114.121209	175.417508	292.106157	-192.732609	83.098635	257.152923	-160.148362	358.829281	144.042221	-147.941293	253.608129	155.575634	-86.124496	340.762105	1066.364629	-461.967567	422.288055	1041.462519	-458.635573	441.301705	1066.792504	-435.939646	484.122337	975.047216	-464.797568	577.238799	862.603100	-437.858537	562.814989	844.560319	-328.006129	474.727140	804.843300	-460.481055	413.417834	743.815667	-449.514993	327.688055	720.386116	-448.840631	430.936116	716.765230	-428.657735	227.189872	650.836868	-442.166184	261.996441	647.356674	-368.460507	161.244728	680.091629	-403.733616	270.227943	407.040710	-381.901161	205.694379	488.923398	-454.203477	-164.473581	902.773170	-267.892475	-43.473028	85.313931	-474.680200	-51.729216	80.105415	-77.183273	
1253	6.2650	773.185401	1242.178489	-154.566349	735.191172	1304.157429	-430.930065	747.310973	1349.481218	-286.601044	679.600922	1197.386477	-303.321875	604.466489	1098.766615	41.187118	705.657353	929.431969	-65.303514	542.707969	1103.181019	-552.806341	702.637571	926.540807	-458.885600	160.276052	1225.713850	-242.023662	292.332378	1257.338128	-389.723303	320.592974	1193.084881	-113.568409	331.199135	1189.530680	-368.808978	346.458922	1132.770161	-155.521330	206.184174	1257.408604	-191.070314	201.901205	1279.008211	-275.197713	230.326198	1068.623791	-109.290350	231.430513	1162.892148	-433.440410	255.459614	962.474753	-91.375741	285.609059	878.452254	-88.151940	269.442512	791.914527	-95.257525	322.072518	881.910369	-94.753824	299.850698	646.417788	-121.001050	238.153566	559.026130	-90.314793	230.650382	470.979814	-101.494611	184.615941	398.950435	-104.199482	260.725053	464.327371	-125.788554	148.634285	268.501470	-112.759471	168.418525	292.114772	-191.076703	75.767185	258.999987	-158.288655	348.546782	139.117737	-149.438379	244.392822	153.081723	-85.906920	340.295574	1070.289580	-460.367270	422.317658	1046.911716	-457.968013	441.042957	1072.556680	-435.282871	485.245712	981.679857	-464.751007	580.916183	871.168097	-439.365286	567.757279	852.731604	-328.405871	479.788800	812.402061	-460.915554	419.295744	750.612071	-449.821973	333.867247	726.140140	-448.699292	437.345779	723.490287	-429.450257	234.093923	653.845954	-441.721587	269.444872	650.862106	-368.171463	167.783742	681.900247	-403.370295	281.927687	411.212248	-381.546244	215.788572	491.762383	-453.995021	-167.460188	902.422182	-269.846071	-43.482732	85.365529	-474.651792	-51.732461	80.130937	-77.160194	
1254	6.2700	772.836967	1241.435189	-156.969372	733.916353	1302.483490	-433.673824	746.769378	1348.316351	-289.191118	677.915672	1196.428197	-305.225627	605.278015	1099.199398	41.172587	705.861404	929.088396	-65.303135	540.563479	1100.986786	-553.256115	702.558422	927.044414	-458.853669	161.458555	1225.802639	-238.714658	290.176404	1259.708600	-387.286560	322.843534	1192.810285	-111.974546	329.847766	1192.025262	-367.642205	348.234526	1132.926631	-154.250674	207.334041	1257.756459	-187.495689	201.509344	1280.144273	-271.293468	231.668490	1069.101441	-107.776228	230.036249	1165.793249	-431.142158	254.531633	963.974788	-90.102284	283.298030	879.524210	-86.216255	266.011764	793.172670	-93.115419	319.969100	882.283798	-92.229227	294.627283	646.682798	-118.865368	232.579743	559.716470	-88.368956	224.656752	471.783551	-99.218283	177.934723	400.035207	-102.206368	254.325708	464.507888	-123.763042	141.728479	269.528526	-111.167022	161.512040	292.910731	-189.353205	68.601269	261.685775	-156.305678	338.468608	135.273078	-150.185111	235.193454	151.312925	-85.702251	339.480643	1074.266732	-458.479967	421.991434	1052.272029	-457.276152	440.538721	1078.167620	-434.647084	485.558835	987.772710	-464.872232	584.514268	879.843776	-438.877993	572.097155	860.775892	-328.734520	484.194021	819.360012	-461.052048	424.668113	756.708655	-449.935352	339.518761	731.146597	-448.526775	443.199666	729.729867	-430.136859	240.811906	656.031692	-441.289690	276.436637	653.857382	-368.172247	174.273452	682.915786	-403.132986	293.452253	414.576632	-381.158109	225.740358	493.935629	-453.911248	-167.507872	902.431178	-269.777365	-43.492568	85.403244	-474.640326	-51.735344	80.145807	-77.134535	
1255	6.2750	772.438661	1240.558561	-159.108635	732.740116	1300.476044	-436.296982	746.384154	1347.152997	-291.839804	676.166772	1195.563681	-307.096311	605.881898	1099.548039	40.951988	706.038630	928.641115	-65.409173	538.465615	1098.668000	-553.648189	702.580090	927.711448	-458.693159	161.777447	1227.164046	-235.174731	288.045986	1262.329069	-384.867195	324.838157	1192.991552	-110.433529	328.325242	1194.758504	-366.383327	349.757832	1133.375869	-153.206358	208.707422	1258.336141	-184.175240	201.195276	1281.855981	-267.605983	233.080229	1069.979277	-106.201663	228.544584	1168.733499	-428.902122	253.972692	965.926159	-88.990142	281.579645	881.057708	-84.069613	263.239744	794.964421	-91.557450	318.080582	883.042230	-90.579280	290.326637	647.516507	-116.979261	227.338233	561.020899	-86.579259	218.943485	473.128313	-97.697247	171.865250	401.808405	-100.299325	249.081457	465.936710	-121.628926	135.028870	271.104297	-109.607766	155.031935	294.550877	-187.629718	61.843740	265.372701	-154.204880	328.305728	131.815198	-150.951844	225.912592	150.036517	-85.473498	338.355476	1078.233728	-456.721557	421.346114	1057.493398	-456.684232	439.710062	1083.608541	-433.962424	485.855539	993.716774	-464.245467	587.031324	887.783346	-439.738395	575.526352	868.888544	-328.939740	487.891976	825.700271	-461.037268	429.477833	762.031289	-449.879887	344.798020	734.948057	-448.248152	448.583060	735.188615	-430.404725	247.209082	657.437231	-440.906006	283.084621	656.034093	-368.153820	180.153220	683.115033	-402.811375	305.114872	417.388121	-380.860360	235.795939	495.427700	-453.799710	-167.482758	902.474612	-269.695543	-43.494766	85.420703	-474.610363	-51.725031	80.144424	-77.122879	
1256	6.2800	772.229770	1239.578457	-161.299541	731.673379	1298.212483	-438.799404	745.973673	1345.786334	-294.396810	674.538582	1194.481472	-308.704367	606.302781	1099.887702	40.626115	706.122566	927.948161	-65.575183	536.481924	1096.323698	-553.917068	702.546250	928.463448	-458.660076	162.379976	1228.940082	-232.057420	286.004843	1265.087577	-382.538122	326.634088	1193.568205	-108.972939	326.753899	1197.432643	-365.106700	350.908828	1134.362775	-152.200333	209.141144	1260.236527	-181.418738	200.907394	1283.951800	-264.019058	234.416883	1071.402356	-104.750699	226.813204	1172.048540	-426.709780	253.826238	968.156505	-88.053489	280.505357	882.959320	-82.170188	261.421546	797.036613	-90.263913	317.009055	884.649855	-88.018903	287.140313	648.861486	-115.173681	223.461025	562.876066	-84.965835	214.285380	475.084671	-96.002932	166.474410	404.234007	-98.631422	244.343026	467.501904	-119.996180	128.841367	273.688508	-108.090962	148.803482	297.141122	-186.053940	55.474327	269.829228	-152.276626	317.974289	128.863313	-151.885564	216.768014	149.586770	-85.372178	336.949513	1082.056023	-455.013683	420.138291	1062.498612	-455.958053	438.336940	1088.949510	-433.342239	485.299298	999.356496	-463.653074	589.808576	895.811777	-438.882680	578.124046	876.744881	-328.899037	490.819648	831.440946	-461.202547	433.722584	766.392041	-449.823393	349.582647	737.662456	-448.027660	453.404142	739.903527	-430.571236	253.119100	658.186641	-440.455223	289.203553	657.603084	-368.060964	186.046886	682.544151	-402.601942	316.787749	419.876185	-380.775146	245.800382	496.375486	-453.765805	-167.487482	902.469263	-269.683908	-43.503356	85.435574	-474.627439	-51.747227	80.165234	-77.123794	
